<svg width="16" height="12" viewBox="0 0 16 12" fill="none" xmlns="http://www.w3.org/2000/svg">
<g clip-path="url(#clip0_1568_90)">
<path fill-rule="evenodd" clip-rule="evenodd" d="M0 0H16V12H0V0Z" fill="#229E45"/>
<path fill-rule="evenodd" clip-rule="evenodd" d="M8.03328 10.9016L15.5708 6.00906L7.98828 1.10156L0.425781 6.01906L8.03328 10.9016Z" fill="#F8E509"/>
<path fill-rule="evenodd" clip-rule="evenodd" d="M11.3192 6C11.3192 7.7575 9.89172 9.1825 8.12922 9.1825C7.49939 9.18151 6.884 8.99381 6.36083 8.64313C5.83767 8.29244 5.43022 7.79452 5.18999 7.21231C4.94977 6.63009 4.88755 5.98972 5.01121 5.37216C5.13487 4.75459 5.43886 4.18755 5.88474 3.74272C6.33062 3.29789 6.89837 2.99524 7.51623 2.87303C8.13408 2.75083 8.7743 2.81455 9.35595 3.05614C9.9376 3.29774 10.4346 3.70636 10.784 4.23035C11.1335 4.75434 11.3197 5.37017 11.3192 6Z" fill="#2B49A3"/>
<path fill-rule="evenodd" clip-rule="evenodd" d="M7.08109 7.90609L6.98109 7.84859L6.88109 7.89859L6.90359 7.78609L6.82359 7.70109L6.93609 7.68859L6.99109 7.58859L7.03859 7.69359L7.14859 7.71359L7.06609 7.78859M9.21609 8.44609L9.11859 8.38859L9.01859 8.43859L9.03859 8.32609L8.96109 8.24359L9.07359 8.23109L9.12609 8.12859L9.17609 8.23359L9.28609 8.25359L9.20109 8.33109M8.29609 7.58109L8.21109 7.53109L8.12359 7.57609L8.14359 7.47859L8.07359 7.40609L8.17359 7.39609L8.21859 7.30609L8.25859 7.39859L8.35609 7.41609L8.28109 7.48359M10.4561 7.27109L10.3711 7.22109L10.2836 7.26609L10.3036 7.16859L10.2361 7.09859L10.3336 7.08859L10.3786 7.00109L10.4186 7.09109L10.5136 7.10859L10.4411 7.17359M8.25859 6.62359L8.15859 6.56859L8.05859 6.61859L8.07859 6.50359L8.00109 6.42109L8.11359 6.40859L8.16609 6.30609L8.21609 6.41109L8.32609 6.43109L8.24109 6.51109M5.62609 5.63609L5.52609 5.58109L5.42609 5.63109L5.45109 5.51609L5.36859 5.43359L5.48359 5.42109L5.53359 5.31859L5.58359 5.42359L5.69359 5.44359L5.61109 5.52109M5.94359 6.95109L5.84359 6.89359L5.74359 6.94359L5.76609 6.83109L5.68609 6.74859L5.79859 6.73359L5.85109 6.63359L5.90109 6.73859L6.01109 6.75859L5.92859 6.83609M9.22859 5.15359L9.13859 5.10359L9.04859 5.14859L9.06859 5.04859L8.99859 4.97359L9.09859 4.96109L9.14609 4.87109L9.18859 4.96609L9.28859 4.98359L9.21359 5.05109M9.04609 6.00859L8.97859 5.96859L8.90609 6.00359L8.92109 5.92359L8.86609 5.86609L8.94609 5.85609L8.98359 5.78609L9.01609 5.86109L9.09109 5.87359L9.03609 5.92859M5.48109 7.18859L5.41359 7.15109L5.34609 7.18359L5.36109 7.10859L5.30859 7.05359L5.38359 7.04359L5.41859 6.97609L5.45109 7.04609L5.52609 7.06109L5.46859 7.11109M10.4736 7.49359L10.4186 7.46609L10.3636 7.49109L10.3761 7.43359L10.3336 7.39359L10.3936 7.38609L10.4236 7.33609L10.4486 7.38609L10.5111 7.39859L10.4636 7.43609" fill="#FFFFEF"/>
<path fill-rule="evenodd" clip-rule="evenodd" d="M5.48109 7.18906L5.41359 7.15156L5.34609 7.18406L5.36109 7.10906L5.30859 7.05406L5.38359 7.04406L5.41859 6.97656L5.45109 7.04656L5.52609 7.06156L5.46859 7.11156" fill="#FFFFEF"/>
<path fill-rule="evenodd" clip-rule="evenodd" d="M5.48109 7.18859L5.41359 7.15109L5.34609 7.18359L5.36109 7.10859L5.30859 7.05359L5.38359 7.04359L5.41859 6.97609L5.45109 7.04609L5.52609 7.06109L5.46859 7.11109M6.52609 7.18609L6.46109 7.15109L6.39359 7.18359L6.40859 7.10859L6.35609 7.05359L6.43109 7.04359L6.46609 6.97609L6.49859 7.04609L6.57359 7.05859L6.51609 7.11109M6.39609 7.53609L6.33109 7.49859L6.26359 7.53359L6.27859 7.45859L6.22609 7.40109L6.30109 7.39109L6.33609 7.32359L6.36859 7.39359L6.44359 7.40859L6.38609 7.45859M8.57109 6.90359L8.50609 6.86359L8.43609 6.89859L8.45109 6.82359L8.40109 6.76609L8.47609 6.75859L8.51109 6.69109L8.54109 6.76109L8.61609 6.77359L8.56109 6.82609M7.93359 6.90109L7.86609 6.86359L7.79859 6.89859L7.81359 6.82359L7.76359 6.76609L7.83859 6.75859L7.87359 6.68859L7.90359 6.76109L7.97859 6.77359L7.92359 6.82609M6.20359 6.68109L6.16109 6.65609L6.11859 6.67609L6.12859 6.62859L6.09609 6.59359L6.14359 6.58859L6.16359 6.54609L6.18359 6.59109L6.23109 6.59859L6.19609 6.63109M10.3911 7.76609L10.3261 7.72859L10.2586 7.76359L10.2736 7.68859L10.2211 7.63109L10.2961 7.62109L10.3311 7.55359L10.3636 7.62359L10.4386 7.63859L10.3811 7.68859M9.86109 7.83859L9.80609 7.80359L9.74859 7.83359L9.76109 7.76859L9.71859 7.72359L9.78109 7.71609L9.81109 7.65859L9.83609 7.71859L9.89859 7.72859L9.85109 7.77359M10.1111 7.83109L10.0611 7.80109L10.0086 7.82609L10.0186 7.76859L9.97859 7.72609L10.0361 7.71859L10.0636 7.66859L10.0886 7.71859L10.1461 7.73109L10.1036 7.77109M10.8311 7.20109L10.7811 7.17609L10.7311 7.20109L10.7436 7.14359L10.7036 7.10109L10.7611 7.09359L10.7861 7.04359L10.8111 7.09609L10.8636 7.10609L10.8236 7.14609M9.85359 8.19109L9.79109 8.15609L9.72359 8.18609L9.73859 8.11609L9.68859 8.06609L9.76359 8.05859L9.79609 7.99609L9.82609 8.06109L9.90109 8.07359L9.84359 8.12109M9.85859 8.47609L9.79859 8.44109L9.73859 8.47359L9.75359 8.40359L9.70609 8.35359L9.77359 8.34359L9.80359 8.28109L9.83109 8.34609L9.89859 8.35859L9.84859 8.40859M9.37359 7.83109L9.32609 7.80109L9.27609 7.82609L9.28609 7.77109L9.24859 7.72859L9.30359 7.72359L9.32859 7.67359L9.35359 7.72359L9.40859 7.73359L9.36859 7.77359M8.92359 7.83109L8.87359 7.80109L8.82359 7.82609L8.83609 7.77109L8.79609 7.72859L8.85359 7.72359L8.87859 7.67359L8.90359 7.72359L8.95609 7.73359L8.91609 7.77359M8.15609 7.15859L8.10609 7.13109L8.05609 7.15609L8.06859 7.09859L8.02859 7.05859L8.08359 7.05109L8.10859 7.00109L8.13359 7.05109L8.18859 7.06359L8.14859 7.10109M8.24109 8.52609L8.20109 8.50359L8.15609 8.52609L8.16609 8.47609L8.13359 8.44109L8.18109 8.43609L8.20359 8.39359L8.22359 8.43859L8.27109 8.44609L8.23609 8.47859M7.08109 6.31359L6.98109 6.25609L6.88109 6.30609L6.90359 6.19359L6.82359 6.11109L6.93609 6.09609L6.99109 5.99609L7.03859 6.10109L7.14859 6.12109L7.06609 6.19859" fill="#FFFFEF"/>
<path fill-rule="evenodd" clip-rule="evenodd" d="M11.1092 7.14691C11.1712 6.9862 11.2197 6.82063 11.2542 6.65191C9.55922 5.16441 7.67172 4.40191 5.28672 4.55941C5.20022 4.72679 5.12909 4.90167 5.07422 5.08191C7.89922 4.81191 9.97422 6.06191 11.1092 7.14691Z" fill="white"/>
<path d="M10.3481 6.30844L10.4056 6.34094C10.397 6.35791 10.3944 6.37728 10.3981 6.39594C10.404 6.41403 10.4165 6.42922 10.4331 6.43844C10.4506 6.45094 10.4681 6.45844 10.4831 6.45594C10.4981 6.45594 10.5081 6.44844 10.5156 6.43844C10.52 6.4318 10.5218 6.4238 10.5206 6.41594C10.5186 6.4067 10.5143 6.39812 10.5081 6.39094C10.5031 6.38344 10.4906 6.36594 10.4706 6.34594C10.4501 6.32472 10.4347 6.29906 10.4256 6.27094C10.4194 6.24965 10.421 6.22684 10.4302 6.20665C10.4394 6.18645 10.4555 6.17023 10.4756 6.16094C10.4938 6.15335 10.5139 6.1516 10.5331 6.15594C10.5566 6.16135 10.5788 6.17157 10.5981 6.18594C10.6331 6.21094 10.6556 6.23594 10.6631 6.26594C10.6666 6.27997 10.667 6.29457 10.6644 6.30879C10.6619 6.32301 10.6563 6.33652 10.6481 6.34844L10.5881 6.31094C10.5956 6.29594 10.5981 6.28094 10.5931 6.26844C10.5906 6.25594 10.5806 6.24344 10.5631 6.23344C10.5503 6.22311 10.5346 6.217 10.5181 6.21594C10.5136 6.21578 10.5091 6.21687 10.5051 6.21907C10.5012 6.22127 10.4979 6.22451 10.4956 6.22844C10.4906 6.23594 10.4906 6.24344 10.4931 6.25344C10.4956 6.26344 10.5081 6.28344 10.5331 6.30844C10.5581 6.33344 10.5731 6.35594 10.5831 6.37094C10.5921 6.38732 10.5961 6.40592 10.5948 6.42454C10.5934 6.44315 10.5868 6.46099 10.5756 6.47594C10.5639 6.49293 10.5474 6.506 10.5281 6.51344C10.5094 6.52207 10.4884 6.52469 10.4681 6.52094C10.4456 6.51594 10.4231 6.50594 10.3981 6.48844C10.3606 6.46344 10.3381 6.43594 10.3306 6.40594C10.3225 6.37192 10.3279 6.33607 10.3456 6.30594L10.3481 6.30844ZM10.0581 6.11844L10.1206 6.15094C10.1129 6.1682 10.1111 6.18756 10.1156 6.20594C10.122 6.2231 10.1345 6.23732 10.1506 6.24594C10.1706 6.25844 10.1856 6.26344 10.2006 6.26094C10.2156 6.26094 10.2256 6.25344 10.2331 6.24094C10.2369 6.23499 10.2387 6.22797 10.2381 6.22094C10.2381 6.21344 10.2331 6.20344 10.2256 6.19594C10.2128 6.18048 10.1995 6.16547 10.1856 6.15094C10.1581 6.12344 10.1406 6.10094 10.1356 6.08094C10.1315 6.06807 10.1303 6.05447 10.132 6.04108C10.1338 6.02769 10.1384 6.01484 10.1456 6.00344C10.1551 5.98801 10.1691 5.97581 10.1856 5.96844C10.2028 5.96052 10.222 5.95791 10.2406 5.96094C10.2637 5.96483 10.2859 5.97333 10.3056 5.98594C10.3431 6.01094 10.3656 6.03594 10.3731 6.06344C10.3777 6.07749 10.3791 6.09236 10.3774 6.10703C10.3757 6.1217 10.3708 6.13583 10.3631 6.14844L10.3006 6.11344C10.3081 6.09594 10.3106 6.08344 10.3056 6.07094C10.3006 6.05844 10.2906 6.04594 10.2731 6.03594C10.2593 6.02601 10.2427 6.02076 10.2256 6.02094C10.2215 6.02121 10.2175 6.0225 10.2141 6.02468C10.2106 6.02686 10.2077 6.02987 10.2056 6.03344C10.2006 6.04094 10.2006 6.04844 10.2031 6.05844C10.2056 6.06844 10.2206 6.08844 10.2456 6.11344C10.2706 6.13844 10.2881 6.15844 10.2956 6.17344C10.3056 6.18912 10.311 6.20733 10.311 6.22594C10.311 6.24454 10.3056 6.26276 10.2956 6.27844C10.2849 6.29588 10.2692 6.30978 10.2506 6.31844C10.2319 6.32707 10.2109 6.32969 10.1906 6.32594C10.1649 6.32159 10.1403 6.31225 10.1181 6.29844C10.0858 6.28121 10.0609 6.25276 10.0481 6.21844C10.0385 6.18506 10.042 6.14924 10.0581 6.11844ZM9.70313 6.02344L9.88562 5.72344L10.1056 5.86094L10.0756 5.91094L9.91563 5.81094L9.87562 5.87844L10.0256 5.97094L9.99312 6.02094L9.84312 5.92844L9.79312 6.01094L9.96062 6.11094L9.93062 6.16094L9.70562 6.02344H9.70313ZM9.18562 5.59844L9.21312 5.54844L9.34812 5.61594L9.28562 5.74094C9.26562 5.74594 9.24062 5.74844 9.21062 5.74594C9.18182 5.74276 9.15385 5.73429 9.12813 5.72094C9.09787 5.7062 9.07201 5.68379 9.05313 5.65594C9.03593 5.63006 9.0272 5.59949 9.02813 5.56844C9.02939 5.53612 9.03794 5.5045 9.05313 5.47594C9.06815 5.44587 9.0905 5.42008 9.11812 5.40094C9.14455 5.38267 9.176 5.37306 9.20812 5.37344C9.23312 5.37344 9.25812 5.38094 9.28812 5.39844C9.32812 5.41594 9.35313 5.44094 9.36563 5.46844C9.37863 5.49574 9.38129 5.52682 9.37312 5.55594L9.30562 5.53594C9.30976 5.51919 9.30799 5.50153 9.30062 5.48594C9.29312 5.47094 9.28062 5.46094 9.26062 5.45094C9.24897 5.44428 9.23604 5.44018 9.22268 5.43888C9.20932 5.43759 9.19584 5.43914 9.18312 5.44344C9.15812 5.45094 9.13562 5.47344 9.11812 5.50844C9.10062 5.54344 9.09312 5.57594 9.10062 5.60344C9.10408 5.61648 9.11034 5.62861 9.11898 5.63897C9.12762 5.64934 9.13842 5.65769 9.15062 5.66344C9.16312 5.67094 9.17812 5.67594 9.19312 5.67594C9.20804 5.6782 9.22321 5.6782 9.23812 5.67594L9.25812 5.63594L9.18562 5.59844ZM6.93062 5.04094L6.98062 4.69094L7.08562 4.70844L7.11312 4.95344L7.21062 4.72844L7.31563 4.74344L7.26563 5.08844L7.19812 5.07844L7.24063 4.80594L7.13062 5.06844L7.06312 5.05844L7.03562 4.77594L6.99562 5.05094L6.93062 5.04094ZM6.57812 4.99844L6.61062 4.64844L6.86812 4.67344L6.86312 4.73344L6.67562 4.71594L6.66812 4.79094L6.84312 4.80844L6.83562 4.86844L6.66062 4.85094L6.65313 4.94594L6.84812 4.96344L6.84312 5.02344L6.57812 4.99844Z" fill="#309E3A"/>
<path d="M5.41075 4.78156C5.41075 4.74406 5.41825 4.71656 5.42825 4.69156C5.43702 4.67378 5.44887 4.6577 5.46325 4.64406C5.47607 4.63113 5.49138 4.62092 5.50825 4.61406C5.53325 4.60656 5.55825 4.60156 5.58325 4.60156C5.63575 4.60156 5.67575 4.62156 5.70825 4.65156C5.72372 4.67067 5.73523 4.69268 5.74209 4.71629C5.74896 4.73989 5.75106 4.76464 5.74825 4.78906C5.74825 4.84406 5.73075 4.88906 5.69825 4.92156C5.68155 4.937 5.66179 4.94876 5.64026 4.95608C5.61873 4.9634 5.5959 4.96612 5.57325 4.96406C5.55091 4.96429 5.52875 4.95997 5.50812 4.95138C5.48749 4.94278 5.46882 4.93009 5.45325 4.91406C5.42214 4.87724 5.40686 4.82961 5.41075 4.78156Z" fill="#309E3A"/>
<path d="M5.48438 4.7802C5.48438 4.8177 5.49188 4.8477 5.50938 4.8702C5.52688 4.8902 5.54938 4.9027 5.57938 4.9027C5.59235 4.90361 5.60537 4.90161 5.61748 4.89686C5.62959 4.8921 5.64049 4.8847 5.64938 4.8752C5.66688 4.8552 5.67438 4.8252 5.67688 4.7827C5.67688 4.7427 5.67188 4.7127 5.65188 4.6927C5.64373 4.68263 5.63345 4.67448 5.62178 4.66886C5.61011 4.66324 5.59733 4.66028 5.58438 4.6602C5.57122 4.65978 5.55814 4.66225 5.54605 4.66743C5.53395 4.67262 5.52314 4.68039 5.51438 4.6902C5.49438 4.7102 5.48688 4.7402 5.48438 4.7802Z" fill="#F7FFFF"/>
<path d="M5.82422 4.96328L5.82922 4.61328H5.97922C6.01672 4.61328 6.04172 4.61828 6.05922 4.62578C6.07672 4.63078 6.08922 4.64328 6.09922 4.65828C6.10922 4.67328 6.11422 4.69328 6.11422 4.71578C6.11441 4.73983 6.10548 4.76306 6.08922 4.78078C6.07074 4.79809 6.04695 4.80866 6.02172 4.81078L6.05922 4.84078C6.06922 4.85078 6.08172 4.87078 6.09672 4.89828L6.13922 4.96828H6.05422L6.00422 4.88828L5.96922 4.83828C5.96316 4.8314 5.9554 4.82623 5.94672 4.82328C5.93535 4.81996 5.92356 4.81828 5.91172 4.81828H5.89672V4.96328H5.82422Z" fill="#309E3A"/>
<path d="M5.89844 4.76188H5.94844C5.98344 4.76188 6.00594 4.76188 6.01344 4.75688C6.02094 4.75688 6.02844 4.74938 6.03344 4.74438C6.03844 4.73938 6.04094 4.72688 6.04094 4.71938C6.04094 4.70438 6.03844 4.69438 6.03094 4.68938C6.02594 4.68188 6.01594 4.67688 6.00594 4.67438H5.95594L5.89844 4.67188V4.75938V4.76188Z" fill="white"/>
<path d="M6.22453 4.62891L6.35453 4.63641C6.38203 4.63641 6.40453 4.63891 6.41953 4.64391C6.43899 4.65097 6.45624 4.66304 6.46953 4.67891C6.48393 4.69639 6.49419 4.7169 6.49953 4.73891C6.50703 4.76141 6.50953 4.78891 6.50703 4.82141C6.50701 4.84692 6.50278 4.87226 6.49453 4.89641C6.48453 4.92141 6.46953 4.94141 6.45203 4.95641C6.43747 4.96841 6.42037 4.97695 6.40203 4.98141C6.38703 4.98641 6.36453 4.98641 6.33953 4.98641L6.20703 4.97891L6.22453 4.62891Z" fill="#309E3A"/>
<path d="M6.29375 4.69141L6.28125 4.92391H6.37625C6.38875 4.92391 6.39875 4.91891 6.40625 4.91141C6.41375 4.90391 6.42125 4.89391 6.42625 4.87891C6.43125 4.86391 6.43625 4.84141 6.43625 4.81391L6.43375 4.75141C6.43018 4.73822 6.4233 4.72617 6.41375 4.71641C6.40545 4.70806 6.39511 4.70202 6.38375 4.69891C6.36485 4.6947 6.3456 4.69219 6.32625 4.69141H6.29375Z" fill="white"/>
<path d="M7.94141 5.25406L8.02391 4.91406L8.13391 4.93906L8.21391 4.96406C8.23141 4.97406 8.24641 4.98906 8.25391 5.01156C8.26391 5.03156 8.26391 5.05406 8.25891 5.08156C8.25391 5.10156 8.24641 5.11906 8.23391 5.13156C8.22474 5.14254 8.21327 5.15137 8.2003 5.15742C8.18734 5.16346 8.17321 5.16659 8.15891 5.16656C8.14141 5.16656 8.11641 5.16156 8.08391 5.15406L8.04141 5.14156L8.01141 5.27156L7.94141 5.25406Z" fill="#309E3A"/>
<path d="M8.07469 4.98828L8.05469 5.08328L8.09219 5.09328C8.11719 5.09828 8.13719 5.10328 8.14719 5.10078C8.15691 5.09943 8.16598 5.0951 8.17314 5.08839C8.18031 5.08167 8.18521 5.0729 8.18719 5.06328C8.18719 5.05078 8.18719 5.04078 8.18219 5.03078C8.1767 5.02062 8.16787 5.01267 8.15719 5.00828L8.10969 4.99578L8.07719 4.98828H8.07469Z" fill="white"/>
<path d="M8.26562 5.35344L8.38312 5.02344L8.52062 5.07344C8.55812 5.08594 8.58062 5.09844 8.59562 5.10844C8.60812 5.12094 8.61812 5.13344 8.62062 5.15344C8.62312 5.17344 8.62562 5.19094 8.62062 5.21094C8.61062 5.23594 8.59562 5.25344 8.57562 5.26594C8.55562 5.27594 8.53062 5.27844 8.50062 5.27344C8.51062 5.28594 8.52062 5.29844 8.52562 5.31344L8.54562 5.38094L8.56062 5.45844L8.48312 5.43094L8.45812 5.34094C8.45358 5.32058 8.44774 5.30054 8.44063 5.28094C8.43731 5.27316 8.43216 5.2663 8.42562 5.26094C8.42062 5.25344 8.41063 5.24844 8.39313 5.24344L8.38063 5.23844L8.33063 5.37844L8.26562 5.35344Z" fill="#309E3A"/>
<path d="M8.40094 5.18406L8.44844 5.20156C8.48094 5.21406 8.50094 5.21906 8.51094 5.21906C8.51844 5.21906 8.52594 5.21906 8.53344 5.21156C8.54094 5.20656 8.54594 5.19906 8.54844 5.18906C8.55344 5.17906 8.55344 5.16906 8.54844 5.15906C8.54474 5.14937 8.53763 5.14137 8.52844 5.13656L8.47844 5.11906L8.42844 5.10156L8.39844 5.18406H8.40094Z" fill="white"/>
<path d="M8.67565 5.33813C8.68424 5.30885 8.6987 5.28163 8.71815 5.25812C8.73079 5.24304 8.74603 5.23034 8.76315 5.22062C8.77864 5.21187 8.79557 5.20595 8.81315 5.20312C8.83815 5.20312 8.86315 5.20313 8.89065 5.21313C8.91299 5.21865 8.93391 5.22887 8.95201 5.24309C8.97011 5.25731 8.98499 5.27522 8.99565 5.29562C9.01565 5.33562 9.01565 5.38313 9.00065 5.43813C8.98828 5.48538 8.95772 5.52582 8.91565 5.55063C8.87815 5.57313 8.83315 5.57563 8.78565 5.56063C8.76336 5.55495 8.74251 5.54468 8.72443 5.53047C8.70635 5.51626 8.69143 5.49843 8.68065 5.47812C8.67063 5.45627 8.66504 5.43265 8.66418 5.40862C8.66332 5.3846 8.66722 5.36064 8.67565 5.33813Z" fill="#309E3A"/>
<path d="M8.74674 5.35805C8.73674 5.39555 8.73424 5.42805 8.74674 5.45305C8.75924 5.47805 8.77675 5.49305 8.80425 5.50305C8.82925 5.51055 8.85425 5.50805 8.87925 5.49305C8.90425 5.48055 8.91925 5.45305 8.93175 5.41305C8.94425 5.37555 8.94425 5.34555 8.93175 5.32055C8.92681 5.30869 8.91932 5.29806 8.90982 5.28942C8.90031 5.28078 8.88902 5.27434 8.87674 5.27055C8.86444 5.26631 8.85137 5.26478 8.83842 5.26607C8.82547 5.26737 8.81296 5.27145 8.80174 5.27805C8.77674 5.29305 8.75924 5.31805 8.74674 5.35805Z" fill="white"/>
<path d="M9.35938 5.82563L9.51938 5.51562L9.65188 5.58312C9.67685 5.59511 9.69966 5.61116 9.71938 5.63063C9.73188 5.64313 9.73938 5.65813 9.73938 5.67813C9.73938 5.69813 9.73938 5.71562 9.72938 5.73312C9.71976 5.7556 9.70185 5.77351 9.67938 5.78312C9.65438 5.78812 9.62938 5.78813 9.60188 5.77813C9.61188 5.79313 9.61687 5.80812 9.62187 5.82062C9.62687 5.83562 9.62938 5.85813 9.63188 5.89063L9.63688 5.97062L9.56188 5.93312L9.55188 5.84063C9.55069 5.81965 9.54819 5.79878 9.54438 5.77813C9.54267 5.76877 9.53833 5.7601 9.53188 5.75313L9.50188 5.73563L9.48938 5.72813L9.42187 5.85812L9.35938 5.82563Z" fill="#309E3A"/>
<path d="M9.51562 5.67766L9.56312 5.70266C9.59312 5.71766 9.61313 5.72766 9.62063 5.72766C9.62813 5.72766 9.63813 5.72766 9.64563 5.72266C9.65313 5.72016 9.65812 5.71266 9.66312 5.70266C9.66812 5.69266 9.67063 5.68266 9.66813 5.67266C9.66504 5.6627 9.65892 5.65396 9.65062 5.64766C9.63599 5.63867 9.62098 5.63033 9.60563 5.62266L9.55563 5.59766L9.51562 5.67766Z" fill="white"/>
<path d="M10.6543 6.46918C10.6705 6.44348 10.6918 6.42136 10.7168 6.40418C10.7336 6.39342 10.7523 6.38579 10.7718 6.38168C10.79 6.37798 10.8087 6.37798 10.8268 6.38168C10.8518 6.38668 10.8743 6.39668 10.8968 6.41168C10.9163 6.4238 10.933 6.43985 10.9459 6.45878C10.9588 6.47772 10.9676 6.49914 10.9718 6.52168C10.9793 6.56418 10.9668 6.61168 10.9368 6.65918C10.9117 6.7005 10.8713 6.73017 10.8243 6.74168C10.8019 6.74652 10.7788 6.74657 10.7564 6.74183C10.734 6.73709 10.7128 6.72767 10.6943 6.71418C10.6749 6.70206 10.6581 6.68602 10.6452 6.66708C10.6323 6.64815 10.6235 6.62672 10.6193 6.60418C10.6118 6.55918 10.6243 6.51418 10.6543 6.46918Z" fill="#309E3A"/>
<path d="M10.7165 6.5093C10.6915 6.5418 10.684 6.5718 10.689 6.5993C10.6908 6.61196 10.6953 6.62409 10.7022 6.63486C10.7091 6.64564 10.7182 6.65482 10.729 6.6618C10.754 6.6793 10.779 6.6843 10.804 6.6768C10.829 6.6693 10.854 6.6518 10.8765 6.6168C10.899 6.5818 10.909 6.5518 10.904 6.5268C10.9015 6.5018 10.8865 6.4793 10.864 6.4618C10.8415 6.4443 10.814 6.4418 10.789 6.4493C10.764 6.4543 10.739 6.4743 10.714 6.5093H10.7165Z" fill="white"/>
<path d="M7.54688 5.11219L7.60438 4.86719L7.78438 4.90969L7.77688 4.94969L7.64438 4.91969L7.63188 4.97469L7.75438 5.00219L7.74438 5.04469L7.62188 5.01469L7.60688 5.08219L7.74438 5.11469L7.73438 5.15469L7.54688 5.11219Z" fill="#309E3A"/>
</g>
<defs>
<clipPath id="clip0_1568_90">
<rect width="16" height="12" fill="white"/>
</clipPath>
</defs>
</svg>
