<svg width="66" height="67" viewBox="0 0 66 67" fill="none" xmlns="http://www.w3.org/2000/svg">
<path d="M33 66.3181C51.0809 66.3181 65.7383 51.6253 65.7383 33.5008C65.7383 15.3764 51.0809 0.683594 33 0.683594C14.9192 0.683594 0.261719 15.3764 0.261719 33.5008C0.261719 51.6253 14.9192 66.3181 33 66.3181Z" fill="#FFFFFF"/>
<path d="M45.9701 31.1813L28.2369 20.9258C27.4184 20.3789 26.3271 20.3789 25.5086 20.9258C24.6902 21.4729 24.1445 22.2932 24.1445 23.2504V43.6244C24.1445 44.5816 24.6902 45.5388 25.5086 45.949C25.9179 46.2224 26.4635 46.3591 26.8727 46.3591C27.282 46.3591 27.8276 46.2224 28.2369 45.949L45.8337 35.6936C46.6522 35.1466 47.1978 34.3262 47.1978 33.369C47.1978 32.4118 46.7886 31.5915 45.9701 31.1813Z" fill="#000000" fillOpacity="0.87"/>
</svg>
