<svg width="15" height="16" viewBox="0 0 15 16" fill="none" xmlns="http://www.w3.org/2000/svg">
<path fillRule="evenodd" clipRule="evenodd" d="M14.2608 9.19922C14.6691 9.19922 15 9.53016 15 9.9384L15 12.8951C15 13.4832 14.7664 14.0473 14.3505 14.4632C13.9346 14.879 13.3706 15.1127 12.7825 15.1127L2.43394 15.1127C1.84581 15.1127 1.28177 14.879 0.865898 14.4632C0.450029 14.0473 0.216396 13.4832 0.216396 12.8951L0.216396 9.9384C0.216396 9.53016 0.547338 9.19922 0.955576 9.19922C1.36381 9.19922 1.69476 9.53016 1.69476 9.9384L1.69476 12.8951C1.69476 13.0912 1.77263 13.2792 1.91126 13.4178C2.04988 13.5564 2.23789 13.6343 2.43394 13.6343L12.7825 13.6343C12.9785 13.6343 13.1665 13.5564 13.3051 13.4178C13.4438 13.2792 13.5216 13.0912 13.5216 12.8951L13.5216 9.9384C13.5216 9.53016 13.8526 9.19922 14.2608 9.19922Z" fill="#1884F7"/>
<path fillRule="evenodd" clipRule="evenodd" d="M11.8226 5.7165C12.1112 6.00517 12.1112 6.47319 11.8226 6.76186L8.12666 10.4578C7.83799 10.7464 7.36997 10.7464 7.0813 10.4578L3.3854 6.76186C3.09673 6.47319 3.09673 6.00517 3.3854 5.7165C3.67407 5.42783 4.14209 5.42783 4.43076 5.7165L7.60398 8.88972L10.7772 5.7165C11.0659 5.42783 11.5339 5.42783 11.8226 5.7165Z" fill="#1884F7"/>
<path fillRule="evenodd" clipRule="evenodd" d="M7.60457 0.328125C8.01281 0.328125 8.34375 0.659067 8.34375 1.06731L8.34375 9.93747C8.34375 10.3457 8.01281 10.6766 7.60457 10.6766C7.19633 10.6766 6.86539 10.3457 6.86539 9.93747L6.86539 1.06731C6.86539 0.659067 7.19633 0.328125 7.60457 0.328125Z" fill="#1884F7"/>
</svg>