<svg width="17" height="14" viewBox="0 0 17 14" fill="none" xmlns="http://www.w3.org/2000/svg">
<path opacity="0.4" d="M9.49336 0.0688206C10.2018 -0.194275 10.9555 0.329598 10.9555 1.0854L10.955 3.14995C12.3541 3.60962 13.8435 3.78152 15.3325 3.64131C16.0407 3.57449 16.6072 4.1918 16.5083 4.87335L16.4818 5.00174L15.0095 10.4963C14.7197 11.5777 13.9937 12.4858 13.0112 13.0077L12.7969 13.1135L12.0396 13.4598C9.98188 14.4011 7.55932 13.8053 6.16947 12.0469L6.01937 11.8468L5.79066 11.5262C4.66699 11.5383 3.53997 11.1647 2.62119 10.4052L1.97941 9.87459C1.05484 9.1103 0.519531 7.9733 0.519531 6.77371V1.0854C0.519531 0.329599 1.27315 -0.194239 1.98172 0.0688392C4.40465 0.968943 7.07038 0.968943 9.49336 0.0688206ZM10.9551 4.39611L10.9555 6.77371C10.9555 7.25396 10.8697 7.72418 10.7075 8.16448C11.5422 8.53063 12.1638 9.25975 12.397 10.1452C12.4807 10.4631 12.2909 10.7886 11.9731 10.8723C11.6624 10.9541 11.3445 10.7746 11.2521 10.4698L11.246 10.4483C11.0962 9.87919 10.6822 9.41832 10.13 9.21264C9.94684 9.45535 9.7342 9.67737 9.49565 9.87457L8.8538 10.4052C8.3299 10.8383 7.7383 11.1459 7.11821 11.3281L6.98928 11.157C7.97547 12.5436 9.77209 13.0718 11.3412 12.4633L11.5445 12.3775L12.3019 12.0311C13.006 11.7092 13.5447 11.1145 13.798 10.3892L13.8599 10.1882L15.293 4.83944L15.1888 4.84755C13.752 4.9519 12.3187 4.79551 10.9551 4.39611ZM9.76531 1.23634L9.66408 1.27207C7.09361 2.16427 4.29455 2.15468 1.72909 1.24333L1.70972 1.23634V6.77371C1.70972 7.60306 2.07308 8.38993 2.70252 8.92766L2.73776 8.95728L3.37953 9.48787C4.74799 10.6191 6.72704 10.6191 8.09546 9.48791L8.7373 8.95725C9.38836 8.41906 9.76531 7.61842 9.76531 6.77371V1.23634ZM8.11972 6.27201C8.40506 6.4351 8.50417 6.79862 8.34107 7.08397C7.81104 8.01131 6.82529 8.59646 5.73752 8.59646C4.64978 8.59646 3.66406 8.01134 3.1339 7.08402C2.97078 6.79869 3.06985 6.43516 3.35517 6.27204C3.6337 6.1128 3.98677 6.20341 4.15517 6.47324L4.16715 6.49331C4.48758 7.05378 5.08141 7.40627 5.73752 7.40627C6.39364 7.40627 6.98745 7.05378 7.30776 6.49336C7.47085 6.20802 7.83438 6.10892 8.11972 6.27201Z" fill="white"/>
</svg>
