<svg width="25" height="24" viewBox="0 0 25 24" fill="none" xmlns="http://www.w3.org/2000/svg">
<path opacity="0.4" d="M13.4934 5.06882C14.2018 4.80573 14.9555 5.3296 14.9555 6.0854L14.955 8.14995C16.3541 8.60962 17.8435 8.78152 19.3325 8.64131C20.0407 8.57449 20.6072 9.1918 20.5083 9.87335L20.4818 10.0017L19.0095 15.4963C18.7197 16.5777 17.9937 17.4858 17.0112 18.0077L16.7969 18.1135L16.0396 18.4598C13.9819 19.4011 11.5593 18.8053 10.1695 17.0469L10.0194 16.8468L9.79066 16.5262C8.66699 16.5383 7.53997 16.1647 6.62119 15.4052L5.97941 14.8746C5.05484 14.1103 4.51953 12.9733 4.51953 11.7737V6.0854C4.51953 5.3296 5.27315 4.80576 5.98172 5.06884C8.40465 5.96894 11.0704 5.96894 13.4934 5.06882ZM14.9551 9.39611L14.9555 11.7737C14.9555 12.254 14.8697 12.7242 14.7075 13.1645C15.5422 13.5306 16.1638 14.2598 16.397 15.1452C16.4807 15.4631 16.2909 15.7886 15.9731 15.8723C15.6624 15.9541 15.3445 15.7746 15.2521 15.4698L15.246 15.4483C15.0962 14.8792 14.6822 14.4183 14.13 14.2126C13.9468 14.4554 13.7342 14.6774 13.4956 14.8746L12.8538 15.4052C12.3299 15.8383 11.7383 16.1459 11.1182 16.3281L10.9893 16.157C11.9755 17.5436 13.7721 18.0718 15.3412 17.4633L15.5445 17.3775L16.3019 17.0311C17.006 16.7092 17.5447 16.1145 17.798 15.3892L17.8599 15.1882L19.293 9.83944L19.1888 9.84755C17.752 9.9519 16.3187 9.79551 14.9551 9.39611ZM13.7653 6.23634L13.6641 6.27207C11.0936 7.16427 8.29455 7.15468 5.72909 6.24333L5.70972 6.23634V11.7737C5.70972 12.6031 6.07308 13.3899 6.70252 13.9277L6.73776 13.9573L7.37953 14.4879C8.74799 15.6191 10.727 15.6191 12.0955 14.4879L12.7373 13.9573C13.3884 13.4191 13.7653 12.6184 13.7653 11.7737V6.23634ZM12.1197 11.272C12.4051 11.4351 12.5042 11.7986 12.3411 12.084C11.811 13.0113 10.8253 13.5965 9.73752 13.5965C8.64978 13.5965 7.66406 13.0113 7.1339 12.084C6.97078 11.7987 7.06985 11.4352 7.35517 11.272C7.6337 11.1128 7.98677 11.2034 8.15517 11.4732L8.16715 11.4933C8.48758 12.0538 9.08141 12.4063 9.73752 12.4063C10.3936 12.4063 10.9874 12.0538 11.3078 11.4934C11.4709 11.208 11.8344 11.1089 12.1197 11.272Z" fill="white"/>
</svg>
